<svg width="35" height="35" viewBox="0 0 35 35" fill="none" xmlns="http://www.w3.org/2000/svg">
<path d="M31.6332 3.95208C31.5166 3.68958 31.3124 3.47083 31.0353 3.35417C30.9041 3.31042 30.7728 3.28125 30.627 3.28125H24.7936C24.1957 3.28125 23.6999 3.77708 23.6999 4.375C23.6999 4.97292 24.1957 5.46875 24.7936 5.46875H27.9874L21.1041 12.3521C20.6811 12.775 20.6811 13.475 21.1041 13.8979C21.3228 14.1167 21.5999 14.2188 21.877 14.2188C22.1541 14.2188 22.4311 14.1167 22.6499 13.8979L29.5332 7.01458V10.2083C29.5332 10.8063 30.0291 11.3021 30.627 11.3021C31.2249 11.3021 31.7207 10.8063 31.7207 10.2083V4.375C31.7207 4.22917 31.6916 4.09792 31.6332 3.95208Z" fill="black"/>
<path d="M12.3521 21.1041L5.46875 27.9874V24.7937C5.46875 24.1958 4.97292 23.6999 4.375 23.6999C3.77708 23.6999 3.28125 24.1958 3.28125 24.7937V30.627C3.28125 30.7729 3.31042 30.9041 3.36875 31.0499C3.48542 31.3124 3.68958 31.5312 3.96667 31.6479C4.08333 31.6916 4.22917 31.7208 4.375 31.7208H10.2083C10.8063 31.7208 11.3021 31.2249 11.3021 30.627C11.3021 30.0291 10.8063 29.5333 10.2083 29.5333H7.01458L13.8979 22.6499C14.3208 22.227 14.3208 21.527 13.8979 21.1041C13.475 20.6812 12.775 20.6812 12.3521 21.1041Z" fill="black"/>
<path d="M3.20841 21.5104C2.698 21.5104 2.24591 21.1458 2.14383 20.6354C1.93966 19.6146 1.823 18.55 1.823 17.5C1.823 8.85207 8.85216 1.82291 17.5001 1.82291C18.5647 1.82291 19.6292 1.92499 20.6647 2.14374C21.2626 2.26041 21.6417 2.84374 21.5251 3.42707C21.4084 4.02499 20.8105 4.38957 20.2417 4.28749C19.323 4.09791 18.4188 4.01041 17.5001 4.01041C10.0626 4.01041 4.0105 10.0625 4.0105 17.5C4.0105 18.4042 4.098 19.3229 4.28758 20.1979C4.40425 20.7958 4.02508 21.3646 3.42716 21.4812C3.35425 21.5104 3.28133 21.5104 3.20841 21.5104Z" fill="black"/>
<path d="M17.5014 33.1746C16.4368 33.1746 15.3722 33.0725 14.3368 32.8538C13.7389 32.7371 13.3597 32.1538 13.4764 31.5704C13.5931 30.9725 14.191 30.6079 14.7597 30.71C15.6493 30.885 16.568 30.9871 17.4868 30.9871C24.9243 30.9871 30.9764 24.935 30.9764 17.4975C30.9764 16.5933 30.8889 15.6892 30.7139 14.7996C30.5972 14.2018 30.9764 13.633 31.5743 13.5163C32.1722 13.3997 32.741 13.7788 32.8576 14.3767C33.0618 15.3975 33.1639 16.4475 33.1639 17.4975C33.1785 26.1454 26.1493 33.1746 17.5014 33.1746Z" fill="black"/>
</svg>
